<svg xmlns="http://www.w3.org/2000/svg" width="1440" height="900" viewBox="0 0 1440 900">
  <defs>
    <linearGradient id="bg" x2="1" y2="1"><stop stop-color="#080d18"/><stop offset="1" stop-color="#111d32"/></linearGradient>
    <linearGradient id="cyan" x2="1"><stop stop-color="#62e4f2"/><stop offset="1" stop-color="#a98cff"/></linearGradient>
    <pattern id="grid" width="48" height="48" patternUnits="userSpaceOnUse"><path d="M48 0H0V48" fill="none" stroke="#93a8cc" stroke-opacity=".05"/></pattern>
    <filter id="glow"><feGaussianBlur stdDeviation="12"/></filter>
  </defs>
  <rect width="1440" height="900" fill="url(#bg)"/>
  <rect width="1440" height="900" fill="url(#grid)"/>
  <circle cx="1050" cy="250" r="225" fill="#62e4f2" opacity=".08" filter="url(#glow)"/>
  <g font-family="SFMono-Regular,Consolas,monospace" fill="#8795ad"><text x="65" y="49" font-size="20" fill="#edf3ff" font-weight="700">RepoDNA</text><text x="65" y="65" font-size="9" fill="#52627c">by VR DEVELOPMENTS</text><text x="1140" y="54" font-size="10">METHOD</text><text x="1210" y="54" font-size="10">GITHUB ↗</text><rect x="1311" y="39" width="82" height="23" rx="12" fill="none" stroke="#25344d"/><circle cx="1327" cy="51" r="3" fill="#b7ed73"/><text x="1338" y="54" font-size="8">PUBLIC SCAN</text></g>
  <line x1="48" y1="83" x2="1392" y2="83" stroke="#94a8cc" stroke-opacity=".12"/>
  <g font-family="Inter,Arial,sans-serif"><text x="65" y="168" font-size="11" font-family="SFMono-Regular,Consolas,monospace" fill="#62e4f2" letter-spacing="2">REPOSITORY INTELLIGENCE / 01</text><text x="65" y="260" font-size="72" font-weight="700" fill="#edf3ff" letter-spacing="-4">Put a repository</text><text x="65" y="330" font-size="72" font-weight="700" fill="#62e4f2" letter-spacing="-4">under the microscope.</text><text x="65" y="378" font-size="16" fill="#8795ad">Read the structure, stack, habits, and evolution of a public GitHub repository.</text><rect x="65" y="424" width="700" height="58" rx="7" fill="#0b1220" stroke="#40516e"/><text x="85" y="459" font-family="SFMono-Regular,Consolas,monospace" font-size="12" fill="#52627c">github.com /</text><text x="183" y="459" font-family="SFMono-Regular,Consolas,monospace" font-size="13" fill="#edf3ff">vercel / next.js</text><rect x="598" y="430" width="158" height="46" rx="5" fill="#62e4f2"/><text x="621" y="459" font-size="12" font-weight="700" fill="#07141e">Decode repository ↗</text></g>
  <g transform="translate(1040 310)"><ellipse rx="250" ry="130" fill="none" stroke="#62e4f2" stroke-opacity=".35" transform="rotate(-25)"/><ellipse rx="190" ry="265" fill="none" stroke="#a98cff" stroke-opacity=".27" transform="rotate(52)"/><ellipse rx="295" ry="105" fill="none" stroke="#b7ed73" stroke-opacity=".2" transform="rotate(117)"/><circle r="88" fill="#62e4f2" fill-opacity=".12" stroke="#62e4f2" stroke-opacity=".7"/><circle r="68" fill="none" stroke="#62e4f2" stroke-opacity=".35" stroke-dasharray="2 6"/><circle r="51" fill="none" stroke="#b7ed73" stroke-opacity=".35" stroke-dasharray="2 6"/><text text-anchor="middle" y="-2" font-size="12" fill="#edf3ff" letter-spacing="3">REPO</text><text text-anchor="middle" y="14" font-size="12" fill="#edf3ff" letter-spacing="3">DNA</text><circle cx="120" cy="-120" r="5" fill="#62e4f2"/><circle cx="-196" cy="-24" r="5" fill="#a98cff"/><circle cx="150" cy="115" r="5" fill="#b7ed73"/></g>
  <g font-family="SFMono-Regular,Consolas,monospace"><text x="65" y="705" font-size="9" fill="#52627c" letter-spacing="2">WHAT YOU GET</text><line x1="65" y1="722" x2="1378" y2="722" stroke="#94a8cc" stroke-opacity=".15"/><text x="65" y="766" font-size="13" fill="#edf3ff">08 evidence-backed lenses</text><text x="65" y="790" font-size="11" fill="#8795ad">Technology · Architecture · Activity · Dependency</text><text x="460" y="766" font-size="13" fill="#edf3ff">interactive repository explorer</text><text x="460" y="790" font-size="11" fill="#8795ad">tree · file weight · language mix · manifests</text><text x="950" y="766" font-size="13" fill="#edf3ff">no login · no writes · no paid APIs</text><text x="950" y="790" font-size="11" fill="#8795ad">public GitHub data, calculated in your browser</text></g>
</svg>
